<mxfile host="app.diagrams.net" modified="2024-05-08T02:09:25.317Z" agent="Mozilla/5.0 (Windows NT 10.0; Win64; x64) AppleWebKit/537.36 (KHTML, like Gecko) Chrome/124.0.0.0 Safari/537.36" etag="vVYjDYL9ZOEwfVGLucCL" version="24.3.1" type="device">
  <diagram name="Página-1" id="RvUINLnwQQNQQJ1a6drY">
    <mxGraphModel dx="2901" dy="1098" grid="1" gridSize="10" guides="1" tooltips="1" connect="1" arrows="1" fold="1" page="1" pageScale="1" pageWidth="827" pageHeight="1169" math="0" shadow="0">
      <root>
        <mxCell id="0" />
        <mxCell id="1" parent="0" />
        <mxCell id="MuIVirKbkME5KFfsADhn-1" value="&lt;div&gt;&lt;br&gt;&lt;/div&gt;&lt;div&gt;&lt;br&gt;&lt;/div&gt;&lt;div&gt;&lt;br&gt;&lt;/div&gt;&lt;div&gt;&lt;br&gt;&lt;/div&gt;&lt;div&gt;Alumno&lt;/div&gt;" style="rounded=0;whiteSpace=wrap;html=1;" vertex="1" parent="1">
          <mxGeometry x="738" y="840" width="110" height="130" as="geometry" />
        </mxCell>
        <mxCell id="MuIVirKbkME5KFfsADhn-2" value="Logo de escuela" style="rounded=0;whiteSpace=wrap;html=1;" vertex="1" parent="1">
          <mxGeometry x="-1" width="420" height="130" as="geometry" />
        </mxCell>
        <mxCell id="MuIVirKbkME5KFfsADhn-3" value="Barra de navegacion" style="rounded=1;whiteSpace=wrap;html=1;" vertex="1" parent="1">
          <mxGeometry x="419" width="440" height="60" as="geometry" />
        </mxCell>
        <mxCell id="MuIVirKbkME5KFfsADhn-4" value="&lt;div&gt;&lt;br&gt;&lt;/div&gt;&lt;div&gt;&lt;br&gt;&lt;/div&gt;&lt;div&gt;&lt;br&gt;&lt;/div&gt;&lt;div&gt;&lt;br&gt;&lt;/div&gt;Nosotros" style="rounded=0;whiteSpace=wrap;html=1;" vertex="1" parent="1">
          <mxGeometry x="420" width="110" height="130" as="geometry" />
        </mxCell>
        <mxCell id="MuIVirKbkME5KFfsADhn-5" value="&lt;div&gt;&lt;br&gt;&lt;/div&gt;&lt;div&gt;&lt;br&gt;&lt;/div&gt;&lt;div&gt;&lt;br&gt;&lt;/div&gt;&lt;div&gt;&lt;br&gt;&lt;/div&gt;&lt;div&gt;Cursos&lt;/div&gt;" style="rounded=0;whiteSpace=wrap;html=1;" vertex="1" parent="1">
          <mxGeometry x="530" width="110" height="130" as="geometry" />
        </mxCell>
        <mxCell id="MuIVirKbkME5KFfsADhn-6" value="&lt;div&gt;&lt;br&gt;&lt;/div&gt;&lt;div&gt;&lt;br&gt;&lt;/div&gt;&lt;div&gt;&lt;br&gt;&lt;/div&gt;&lt;div&gt;&lt;br&gt;&lt;/div&gt;&lt;div&gt;Contacto&lt;/div&gt;" style="rounded=0;whiteSpace=wrap;html=1;" vertex="1" parent="1">
          <mxGeometry x="640" width="110" height="130" as="geometry" />
        </mxCell>
        <mxCell id="MuIVirKbkME5KFfsADhn-7" value="&lt;div&gt;&lt;br&gt;&lt;/div&gt;&lt;div&gt;&lt;br&gt;&lt;/div&gt;&lt;div&gt;&lt;br&gt;&lt;/div&gt;&lt;div&gt;&lt;br&gt;&lt;/div&gt;&lt;div&gt;Alumno&lt;/div&gt;" style="rounded=0;whiteSpace=wrap;html=1;" vertex="1" parent="1">
          <mxGeometry x="750" width="110" height="130" as="geometry" />
        </mxCell>
        <mxCell id="MuIVirKbkME5KFfsADhn-8" value="Logo de escuela" style="rounded=0;whiteSpace=wrap;html=1;" vertex="1" parent="1">
          <mxGeometry x="-2" y="840" width="420" height="130" as="geometry" />
        </mxCell>
        <mxCell id="MuIVirKbkME5KFfsADhn-10" value="&lt;div&gt;&lt;br&gt;&lt;/div&gt;&lt;div&gt;&lt;br&gt;&lt;/div&gt;&lt;div&gt;&lt;br&gt;&lt;/div&gt;&lt;div&gt;&lt;br&gt;&lt;/div&gt;Nosotros" style="rounded=0;whiteSpace=wrap;html=1;" vertex="1" parent="1">
          <mxGeometry x="419" y="840" width="110" height="130" as="geometry" />
        </mxCell>
        <mxCell id="MuIVirKbkME5KFfsADhn-11" value="&lt;div&gt;&lt;br&gt;&lt;/div&gt;&lt;div&gt;&lt;br&gt;&lt;/div&gt;&lt;div&gt;&lt;br&gt;&lt;/div&gt;&lt;div&gt;&lt;br&gt;&lt;/div&gt;&lt;div&gt;Cursos&lt;/div&gt;" style="rounded=0;whiteSpace=wrap;html=1;" vertex="1" parent="1">
          <mxGeometry x="529" y="840" width="110" height="130" as="geometry" />
        </mxCell>
        <mxCell id="MuIVirKbkME5KFfsADhn-12" value="&lt;div&gt;&lt;br&gt;&lt;/div&gt;&lt;div&gt;&lt;br&gt;&lt;/div&gt;&lt;div&gt;&lt;br&gt;&lt;/div&gt;&lt;div&gt;&lt;br&gt;&lt;/div&gt;&lt;div&gt;Contacto&lt;/div&gt;" style="rounded=0;whiteSpace=wrap;html=1;" vertex="1" parent="1">
          <mxGeometry x="639" y="840" width="110" height="130" as="geometry" />
        </mxCell>
        <mxCell id="MuIVirKbkME5KFfsADhn-9" value="Barra de navegacion" style="rounded=1;whiteSpace=wrap;html=1;" vertex="1" parent="1">
          <mxGeometry x="418" y="840" width="432" height="60" as="geometry" />
        </mxCell>
        <mxCell id="MuIVirKbkME5KFfsADhn-13" value="" style="rounded=0;whiteSpace=wrap;html=1;" vertex="1" parent="1">
          <mxGeometry x="80" y="200" width="700" height="590" as="geometry" />
        </mxCell>
        <mxCell id="MuIVirKbkME5KFfsADhn-14" value="nombre" style="rounded=0;whiteSpace=wrap;html=1;" vertex="1" parent="1">
          <mxGeometry x="164" y="310" width="500" height="60" as="geometry" />
        </mxCell>
        <mxCell id="MuIVirKbkME5KFfsADhn-15" value="teléfono" style="rounded=0;whiteSpace=wrap;html=1;" vertex="1" parent="1">
          <mxGeometry x="164" y="380" width="500" height="60" as="geometry" />
        </mxCell>
        <mxCell id="MuIVirKbkME5KFfsADhn-16" value="Correo" style="rounded=0;whiteSpace=wrap;html=1;" vertex="1" parent="1">
          <mxGeometry x="164" y="450" width="500" height="60" as="geometry" />
        </mxCell>
        <mxCell id="MuIVirKbkME5KFfsADhn-17" value="Mensaje" style="rounded=0;whiteSpace=wrap;html=1;" vertex="1" parent="1">
          <mxGeometry x="164" y="540" width="500" height="220" as="geometry" />
        </mxCell>
        <mxCell id="MuIVirKbkME5KFfsADhn-19" value="Barra de navegacion" style="rounded=1;whiteSpace=wrap;html=1;" vertex="1" parent="1">
          <mxGeometry x="420" width="440" height="60" as="geometry" />
        </mxCell>
        <mxCell id="MuIVirKbkME5KFfsADhn-20" value="Inscribete" style="rounded=0;whiteSpace=wrap;html=1;" vertex="1" parent="1">
          <mxGeometry x="354" y="770" width="120" height="60" as="geometry" />
        </mxCell>
        <mxCell id="MuIVirKbkME5KFfsADhn-21" value="redes sociales" style="rounded=0;whiteSpace=wrap;html=1;" vertex="1" parent="1">
          <mxGeometry x="70" y="1000" width="700" height="60" as="geometry" />
        </mxCell>
      </root>
    </mxGraphModel>
  </diagram>
</mxfile>
